<svg display="none"  xmlns="http://www.w3.org/2000/svg">

	<symbol id="remove" viewBox="0 0 25 25" fill="none" >
		<path d="M15.625 6.25H20.3125C20.5197 6.25 20.7184 6.33231 20.8649 6.47882C21.0114 6.62534 21.0938 6.82405 21.0938 7.03125C21.0938 7.23845 21.0114 7.43716 20.8649 7.58368C20.7184 7.73019 20.5197 7.8125 20.3125 7.8125H19.4484L18.2734 18.4C18.1673 19.3555 17.7125 20.2384 16.9961 20.8795C16.2797 21.5207 15.352 21.8751 14.3906 21.875H10.6094C9.64797 21.8751 8.72029 21.5207 8.00389 20.8795C7.28749 20.2384 6.8327 19.3555 6.72656 18.4L5.55 7.8125H4.6875C4.4803 7.8125 4.28159 7.73019 4.13507 7.58368C3.98856 7.43716 3.90625 7.23845 3.90625 7.03125C3.90625 6.82405 3.98856 6.62534 4.13507 6.47882C4.28159 6.33231 4.4803 6.25 4.6875 6.25H9.375C9.375 5.4212 9.70424 4.62634 10.2903 4.04029C10.8763 3.45424 11.6712 3.125 12.5 3.125C13.3288 3.125 14.1237 3.45424 14.7097 4.04029C15.2958 4.62634 15.625 5.4212 15.625 6.25ZM12.5 4.6875C12.0856 4.6875 11.6882 4.85212 11.3951 5.14515C11.1021 5.43817 10.9375 5.8356 10.9375 6.25H14.0625C14.0625 5.8356 13.8979 5.43817 13.6049 5.14515C13.3118 4.85212 12.9144 4.6875 12.5 4.6875ZM10.1562 10.9375V17.1875C10.1562 17.3947 10.2386 17.5934 10.3851 17.7399C10.5316 17.8864 10.7303 17.9688 10.9375 17.9688C11.1447 17.9688 11.3434 17.8864 11.4899 17.7399C11.6364 17.5934 11.7188 17.3947 11.7188 17.1875V10.9375C11.7188 10.7303 11.6364 10.5316 11.4899 10.3851C11.3434 10.2386 11.1447 10.1562 10.9375 10.1562C10.7303 10.1562 10.5316 10.2386 10.3851 10.3851C10.2386 10.5316 10.1562 10.7303 10.1562 10.9375ZM14.0625 10.1562C13.8553 10.1562 13.6566 10.2386 13.5101 10.3851C13.3636 10.5316 13.2812 10.7303 13.2812 10.9375V17.1875C13.2812 17.3947 13.3636 17.5934 13.5101 17.7399C13.6566 17.8864 13.8553 17.9688 14.0625 17.9688C14.2697 17.9688 14.4684 17.8864 14.6149 17.7399C14.7614 17.5934 14.8438 17.3947 14.8438 17.1875V10.9375C14.8438 10.7303 14.7614 10.5316 14.6149 10.3851C14.4684 10.2386 14.2697 10.1562 14.0625 10.1562Z" fill="white"/>
	</symbol>

	<symbol id="like" viewBox="0 0 24 24"  >
		<path  fill-rule="evenodd" clip-rule="evenodd" d="M15.9 4.5C15.9 3 14.418 2 13.26 2c-.806 0-.869.612-.993 1.82-.055.53-.121 1.174-.267 1.93-.386 2.002-1.72 4.56-2.996 5.325V17C9 19.25 9.75 20 13 20h3.773c2.176 0 2.703-1.433 2.899-1.964l.013-.036c.114-.306.358-.547.638-.82.31-.306.664-.653.927-1.18.311-.623.27-1.177.233-1.67-.023-.299-.044-.575.017-.83.064-.27.146-.475.225-.671.143-.356.275-.686.275-1.329 0-1.5-.748-2.498-2.315-2.498H15.5S15.9 6 15.9 4.5zM5.5 10A1.5 1.5 0 0 0 4 11.5v7a1.5 1.5 0 0 0 3 0v-7A1.5 1.5 0 0 0 5.5 10z" />
	</symbol>

	<symbol id="heart" viewBox="0 0 12 12">
		<path d="M8.5,1C7.5206299,1,6.6352539,1.4022217,6,2.0504761C5.3648071,1.4022827,4.4793701,1,3.5,1  C1.5670166,1,0,2.5670166,0,4.5S2,8,6,11c4-3,6-4.5670166,6-6.5S10.4329834,1,8.5,1z" />
	</symbol>

	<symbol id="logo" viewBox="0 0 156 66">
		<g clip-path="url(#clip0_3401_138)">
			<path d="M48.5125 24.6743C48.4882 21.1069 47.3257 17.6401 45.194 14.7779C45.1655 14.7184 45.1258 14.665 45.077 14.6205C43.6523 12.7179 41.9207 11.0654 39.9529 9.73077C39.9015 9.68971 39.8473 9.65214 39.7908 9.61832C36.7407 7.58887 33.3039 6.21058 29.6958 5.56979H29.6508C29.6272 5.56304 29.6023 5.56304 29.5787 5.56979C28.6782 5.39885 27.7101 5.27739 26.7555 5.19642C26.6835 3.20815 26.2738 1.98009 25.792 1.21537C25.6447 0.932775 25.4408 0.6835 25.1929 0.483059C24.945 0.282618 24.6585 0.135304 24.3511 0.050293H24.2295H24.1485C23.8407 0.135495 23.5536 0.282842 23.305 0.48323C23.0564 0.683619 22.8516 0.932792 22.7031 1.21537C22.2168 1.98009 21.8026 3.21264 21.7396 5.20092C12.3785 5.99263 4.58433 11.1073 1.47748 18.0258C1.45977 18.0621 1.44472 18.0997 1.43245 18.1382C0.513654 20.2046 0.0381763 22.4403 0.0366211 24.7013C0.0366211 30.0589 2.64367 35.0476 7.385 38.7677C7.06004 40.8612 7.26277 43.0025 7.97485 44.998C6.85818 48.5966 5.86759 53.1895 7.74971 57.0941C7.75053 57.106 7.75053 57.1181 7.74971 57.13C9.92001 61.5834 14.1705 62.789 18.2815 63.9496C20.2384 64.4245 22.1433 65.092 23.9684 65.9423L24.0314 65.9693H24.072C24.1139 65.9737 24.1561 65.9737 24.198 65.9693H24.2656C24.3473 65.9702 24.428 65.9501 24.4997 65.9109C26.3252 65.051 28.2317 64.3744 30.1911 63.8911C32.5325 63.2298 34.9234 62.5416 36.9451 61.2685L37.0037 61.228C38.611 60.2207 39.9003 58.7798 40.7229 57.0716C42.6275 53.1625 41.6234 48.6281 40.5698 45.1149C40.5623 45.0903 40.55 45.0674 40.5338 45.0474C41.6054 42.4474 41.3082 39.6494 41.1686 38.7137C45.9055 35.0116 48.5125 30.0319 48.5125 24.6743ZM47.4994 24.6743C47.4984 26.1297 47.2908 27.5777 46.8826 28.9748C46.1627 27.5083 45.2363 26.1526 44.1314 24.9487C42.0827 22.6996 38.458 19.9241 32.5775 18.8355C36.4353 17.3638 40.4247 16.2627 44.4916 15.5472C46.4217 18.2021 47.4733 21.3931 47.4994 24.6743ZM43.8207 14.643C38.5349 15.5937 33.3909 17.2094 28.5116 19.4517C28.1964 16.9012 27.0617 14.8949 25.5578 14.1617C25.6074 13.9817 25.6479 13.8108 25.6884 13.6398C30.1621 12.1384 34.7844 11.122 39.4756 10.608C41.1112 11.7366 42.5747 13.0957 43.8207 14.643ZM37.9267 47.1122L37.6565 47.3506C36.692 48.1046 35.5573 48.6111 34.3516 48.8261H34.293H34.1985H34.1715C31.6545 49.2759 28.3945 48.9385 24.4277 47.7734H24.3736H24.1755H24.135C22.3281 48.3251 20.4742 48.7091 18.5967 48.9205H18.5156C14.999 49.2624 12.3515 48.6416 10.6089 47.0492C8.58722 45.2859 8.20899 42.5194 8.20899 40.648C9.06513 42.2584 10.3428 43.6064 11.9057 44.5481C14.4947 46.0776 17.7592 46.3475 21.618 45.4073C21.8674 45.886 22.2438 46.2869 22.706 46.5661C23.1682 46.8454 23.6984 46.9923 24.2386 46.9907C24.7781 46.9925 25.3078 46.8456 25.7693 46.5663C26.2308 46.2869 26.6063 45.8859 26.8546 45.4073C30.7134 46.3654 33.9824 46.0776 36.5669 44.5481C38.132 43.609 39.4103 42.2604 40.2636 40.648C40.2996 42.5194 39.9214 45.2858 37.9267 47.1122ZM35.6754 60.8907C33.9288 61.7531 32.0927 62.4214 30.2001 62.8834C29.3368 62.0651 28.5954 61.1274 27.9983 60.099C27.0978 58.484 27.548 56.7072 28.2189 55.0248C28.3315 54.7369 28.4666 54.4265 28.6107 54.1026C29.16 52.8566 29.8174 51.3541 29.5922 49.9641C30.3304 50.0532 31.0731 50.0997 31.8166 50.1036C32.5629 50.1061 33.3082 50.0489 34.0454 49.9327C34.3291 50.7334 33.9238 52.1099 33.5591 53.3469C33.2491 54.2008 33.0626 55.0945 33.0053 56.0009C33.0041 56.9743 33.2481 57.9323 33.7147 58.7868C34.1813 59.6413 34.8555 60.3648 35.6754 60.8907ZM24.2701 64.9392C23.5406 64.3994 21.0146 62.3167 20.5283 58.9114C20.0781 55.8165 21.4064 52.4517 24.4412 48.9025C25.7812 49.2857 27.1436 49.5861 28.5206 49.8022C28.8808 50.9448 28.2459 52.3888 27.6831 53.6708C27.5345 54.0127 27.3949 54.3366 27.2779 54.6379C26.5349 56.5498 25.9991 58.592 27.1158 60.5758C27.6617 61.5216 28.3226 62.3965 29.0834 63.1803C27.4277 63.6203 25.8151 64.209 24.2656 64.9392H24.2701ZM36.0626 43.6934C33.6401 45.1239 30.4973 45.3398 26.742 44.3412C26.6759 44.3193 26.6059 44.3114 26.5365 44.318C26.4671 44.3245 26.3998 44.3453 26.3389 44.3791C26.278 44.413 26.2247 44.459 26.1825 44.5144C26.1403 44.5698 26.11 44.6334 26.0937 44.7011C25.9607 45.0788 25.7131 45.4057 25.3855 45.6363C25.0578 45.8669 24.6664 45.9897 24.2656 45.9876C23.8615 45.9907 23.4668 45.8663 23.1377 45.632C22.8086 45.3977 22.562 45.0656 22.433 44.6831C22.4158 44.618 22.3854 44.5573 22.3435 44.5046C22.3017 44.452 22.2493 44.4086 22.1898 44.3772C22.1255 44.3427 22.0547 44.3217 21.9819 44.3155C21.9091 44.3093 21.8358 44.318 21.7666 44.3412C18.0203 45.3353 14.891 45.1194 12.464 43.6934C10.5636 42.5211 9.14298 40.7112 8.45664 38.5878C8.86638 37.7601 10.8746 33.9994 15.3863 29.627C15.8681 29.3481 21.9917 26.0014 33.1539 29.654C37.634 34.0039 39.6783 37.8051 40.079 38.5923C39.3837 40.7102 37.9589 42.513 36.0581 43.6799L36.0626 43.6934ZM20.9516 20.8957C20.9516 18.3181 21.8927 16.051 23.1714 15.2188C23.3106 15.1202 23.4619 15.04 23.6217 14.9804C23.7807 14.9205 23.9475 14.8841 24.117 14.8724H24.3061C24.4782 14.8764 24.6485 14.9083 24.8104 14.9669C24.9691 15.0194 25.1204 15.092 25.2607 15.1828C26.3998 15.889 27.2824 17.7289 27.485 19.9196C27.52 20.2438 27.5366 20.5697 27.5345 20.8957C27.5345 20.9497 27.5345 21.0082 27.5345 21.0667C27.5268 21.9026 27.4118 22.7341 27.1923 23.5408C27.0965 23.8757 26.9807 24.2047 26.8456 24.5259C26.2377 25.9699 25.2877 26.919 24.234 26.919C23.1804 26.919 22.2304 25.9744 21.6225 24.5304C21.477 24.1953 21.3581 23.8494 21.2668 23.4958C21.0454 22.6471 20.9394 21.7726 20.9516 20.8957ZM22.0187 26.9415C20.4954 27.0102 18.9848 27.2516 17.516 27.6613C18.4841 26.8381 19.5693 25.9879 20.767 25.1332C21.0684 25.8083 21.4928 26.4215 22.0187 26.9415ZM26.3368 27.0855C26.9341 26.5408 27.4085 25.8753 27.7281 25.1332C29.0789 26.1093 30.3307 27.1035 31.4473 28.0796C29.7716 27.6188 28.0631 27.2865 26.3368 27.0855ZM25.918 12.4883C26.3129 10.6926 26.5748 8.87035 26.7015 7.03625C27.6021 6.86082 28.5251 6.69437 29.4752 6.54143C32.5191 7.09115 35.4406 8.17879 38.1023 9.75327C33.9641 10.2817 29.8848 11.1974 25.918 12.4883ZM23.4821 1.80465C23.6483 1.47941 23.9067 1.21029 24.225 1.03093C24.5423 1.21175 24.8003 1.48048 24.968 1.80465C25.3012 2.36695 25.6434 3.36559 25.7154 5.08846C25.7154 5.40335 25.7154 5.74073 25.7154 6.10509V6.20855C25.7154 6.53694 25.6884 6.87881 25.6659 7.25667C25.5027 9.14738 25.2017 11.0237 24.7654 12.8706C24.6933 13.199 24.6213 13.5319 24.5402 13.8783C24.436 13.862 24.3305 13.8545 24.225 13.8558C24.1016 13.8579 23.9783 13.8669 23.8558 13.8828C23.8063 13.6713 23.7523 13.4644 23.7072 13.253C23.293 11.4973 22.9922 9.71673 22.8067 7.92243C22.7707 7.56256 22.7437 7.22069 22.7301 6.8968C22.7166 6.57292 22.7031 6.357 22.6986 6.10509C22.6986 5.74073 22.6986 5.40335 22.6986 5.09296C22.8067 3.36559 23.1534 2.36695 23.4821 1.80465ZM21.717 6.17706C21.717 6.48745 21.7396 6.81583 21.7621 7.15321C12.5226 9.66329 6.80415 13.37 3.89542 15.7001C7.46154 10.5315 14.031 6.85182 21.717 6.17706ZM2.32398 18.5206C2.67969 18.1382 4.67888 16.069 8.62774 13.7118C12.7664 11.2886 17.213 9.43357 21.8476 8.19683C22.0538 10.0254 22.3696 11.84 22.7932 13.6309C17.795 15.5443 13.1804 18.3369 9.16807 21.8764C5.11565 25.547 3.05342 28.9658 2.22042 30.6122C1.41211 28.6967 1.00472 26.6362 1.0233 24.5575C1.04189 22.4788 1.48606 20.4259 2.32849 18.5251L2.32398 18.5206ZM2.77425 31.7997C3.40462 30.3783 7.92082 21.1431 21.7216 15.1558C20.6364 16.4243 19.943 18.4981 19.943 20.8912C19.9323 21.9782 20.0841 23.0608 20.3933 24.103C12.3785 29.744 8.7268 35.8483 7.7227 37.7421C5.67764 36.1253 3.99103 34.1018 2.76975 31.7997H2.77425ZM8.62774 46.2935C8.98647 46.8681 9.41946 47.3929 9.91551 47.8544C10.7579 48.6155 11.7546 49.1863 12.8377 49.5278C11.7778 49.863 10.8036 50.4248 9.98305 51.1742C8.98057 52.1385 8.28382 53.3758 7.97936 54.7324C7.30846 51.9524 7.86229 48.9205 8.60523 46.2935H8.62774ZM8.7268 56.7702C9.01497 49.9686 15.3863 50.0721 15.6654 50.0811C15.713 50.0828 15.7604 50.0751 15.805 50.0586C16.1427 50.0586 16.4894 50.0856 16.8406 50.0586C14.7514 51.705 13.4861 53.6123 13.0809 55.749C12.7522 57.6744 13.0438 59.6544 13.9139 61.4035C11.7526 60.4813 9.8975 59.1453 8.70429 56.7702H8.7268ZM15.4133 61.9928C15.0396 61.4215 13.5267 58.8844 14.094 55.947C14.5443 53.6663 16.1067 51.6555 18.7678 49.9686C20.1536 49.8197 21.5263 49.5671 22.8742 49.2129C20.2132 52.6452 19.083 55.9605 19.5332 59.0553C19.8086 60.8538 20.5787 62.5404 21.7576 63.9271C20.6994 63.5582 19.6188 63.2523 18.5562 62.9509C17.4935 62.6495 16.4084 62.3436 15.4133 61.9928ZM36.6795 60.2699C35.8828 59.866 35.2136 59.2495 34.7463 58.4888C34.279 57.7282 34.0317 56.853 34.0319 55.9605C34.097 55.1602 34.2681 54.3721 34.5407 53.6168C34.9549 52.2313 35.3737 50.8053 35.063 49.7167C35.899 49.5136 36.7002 49.1877 37.4404 48.7496C37.4404 52.6317 39.5792 54.3006 40.4707 54.8314C40.3187 55.4659 40.0998 56.0827 39.8178 56.6712C39.1081 58.132 38.0178 59.3751 36.6615 60.2699H36.6795ZM40.6824 53.7518C39.8043 53.1085 38.2554 51.4666 38.4895 47.9804L38.6336 47.8544C39.113 47.4149 39.5323 46.9143 39.8809 46.3654C40.5022 48.6416 41.011 51.2507 40.6643 53.7518H40.6824ZM40.7949 37.7556C39.8088 35.8933 36.1707 29.8115 28.1154 24.148C28.441 23.0949 28.602 21.9979 28.5926 20.8957C28.5926 20.7878 28.5926 20.6753 28.5926 20.5718C29.2996 20.23 30.029 19.8971 30.781 19.5867C37.3414 20.3694 41.2452 23.2799 43.3659 25.5965C44.6711 26.992 45.7021 28.6202 46.4053 30.3963C45.1936 33.292 43.2551 35.8267 40.7769 37.7556H40.7949Z" />
			<path d="M17.5289 35.9868C16.0295 35.9868 14.6877 36.6436 14.1834 37.6242C14.1234 37.7437 14.1129 37.8819 14.1542 38.0091C14.1955 38.1362 14.2853 38.242 14.4041 38.3035C14.4755 38.3387 14.554 38.3572 14.6337 38.3574C14.7268 38.3577 14.8181 38.3322 14.8976 38.2837C14.9771 38.2353 15.0416 38.1658 15.084 38.083C15.4127 37.4443 16.4348 36.9944 17.5289 36.9944C18.6231 36.9944 19.6452 37.4443 19.9784 38.083C20.0084 38.1422 20.0499 38.1949 20.1003 38.238C20.1508 38.2812 20.2093 38.3139 20.2725 38.3344C20.3357 38.3549 20.4023 38.3627 20.4685 38.3574C20.5347 38.3521 20.5992 38.3338 20.6583 38.3035C20.7782 38.242 20.8689 38.1354 20.9102 38.0072C20.9516 37.879 20.9403 37.7396 20.8789 37.6197C20.3656 36.6436 19.0148 35.9868 17.5289 35.9868Z" />
			<path d="M30.9784 35.9868C29.479 35.9868 28.1327 36.6436 27.6329 37.6242C27.6019 37.6831 27.5831 37.7476 27.5775 37.8139C27.5718 37.8802 27.5795 37.947 27.6001 38.0102C27.6206 38.0735 27.6536 38.132 27.6972 38.1824C27.7407 38.2328 27.7938 38.2739 27.8535 38.3035C27.9249 38.3387 28.0035 38.3572 28.0831 38.3574C28.1762 38.3577 28.2676 38.3322 28.347 38.2837C28.4265 38.2353 28.491 38.1658 28.5334 38.083C28.8621 37.4443 29.8842 36.9944 30.9784 36.9944C32.0725 36.9944 33.0946 37.4443 33.4278 38.083C33.4579 38.1422 33.4993 38.1949 33.5498 38.238C33.6002 38.2812 33.6587 38.3139 33.7219 38.3344C33.7851 38.3549 33.8517 38.3627 33.9179 38.3574C33.9841 38.3521 34.0486 38.3338 34.1077 38.3035C34.2268 38.2411 34.3167 38.1345 34.3579 38.0066C34.3992 37.8788 34.3886 37.7398 34.3284 37.6197C33.8195 36.6436 32.4732 35.9868 30.9784 35.9868Z" />
			<path d="M63.8707 29.0774C67.1621 29.0774 70.7282 30.8767 71.3406 35.1097H67.3467C66.7794 33.4993 65.5727 32.7705 63.8707 32.7705C61.4887 32.7705 59.9218 34.5699 59.9218 37.1924C59.9218 39.5316 61.4662 41.5693 63.8707 41.5963C65.5997 41.5963 66.982 40.7327 67.4143 39.0323H71.4081C70.8183 43.5306 67.2567 45.2895 63.8707 45.2895C59.8182 45.312 55.7433 42.5905 55.7208 37.1924C55.6983 31.7944 59.8317 29.0774 63.8707 29.0774Z" />
			<path d="M77.7659 44.6959L80.2514 39.5767L74.9067 29.8513V29.2395H79.4454L82.4442 35.0874H82.5568L85.2809 29.2395H89.7071V29.8513L82.147 45.1457H77.7659V44.6959Z" />
			<path d="M94.7049 45.1455H90.729V44.5562L97.8793 29.0684H99.6128L106.817 44.5427V45.1455H102.841L98.7573 35.8474L94.7049 45.1455Z" />
			<path d="M108.667 32.8875V29.2573H120.469V32.8875H116.588V45.1456H112.571V32.8875H108.667Z" />
			<path d="M133.5 43.1347H127.237L126.305 45.1455H122.333V44.5562L129.484 29.0684H131.231L138.404 44.5562V45.1455H134.432L133.5 43.1347ZM130.348 35.4875L128.547 39.662H132.181L130.348 35.4875Z" />
			<path d="M156 45.1456H151.844V38.7579H146.941V45.1456H142.789V29.2573H146.941V35.0152H151.844V29.2573H156V45.1456Z" />
		</g>
		<defs>
			<clipPath id="clip0_3401_138">
				<rect width="156" height="66" fill="white"/>
			</clipPath>
		</defs>

	</symbol>

	<symbol id="cart" viewBox="0 0 41 29" fill="none">
		<path d="M40.6514 5.78617C40.3916 5.42327 40.043 5.24182 39.6055 5.24182H11.7559L11 3.27403C10.8086 2.62887 10.5488 2.07779 10.2207 1.6208C9.89258 1.16381 9.54395 0.841232 9.1748 0.65306C8.80566 0.464888 8.48438 0.3372 8.21094 0.269996C7.9375 0.202792 7.66406 0.169189 7.39062 0.169189H1.77148C1.41602 0.169189 1.11523 0.290157 0.869141 0.532093C0.623047 0.774028 0.5 1.08317 0.5 1.45951C0.5 1.67457 0.554688 1.8829 0.664062 2.08451C0.773438 2.28612 0.930664 2.44069 1.13574 2.54822C1.34082 2.65575 1.55273 2.70951 1.77148 2.70951H7.39062C7.5 2.70951 7.60254 2.72295 7.69824 2.74983C7.79395 2.77672 7.92383 2.89096 8.08789 3.09258C8.25195 3.29419 8.38867 3.59661 8.49805 3.99983L14.3809 20.1531C14.4355 20.3144 14.5244 20.4689 14.6475 20.6168C14.7705 20.7646 14.9141 20.8789 15.0781 20.9595C15.2422 21.0402 15.4199 21.0805 15.6113 21.0805H33.3301C33.6035 21.0805 33.8564 20.9998 34.0889 20.8385C34.3213 20.6773 34.4785 20.4756 34.5605 20.2337L40.8359 6.97569C40.9727 6.54558 40.9111 6.14908 40.6514 5.78617ZM32.4277 18.4998H16.6367L12.4531 7.82246H37.7188L32.4277 18.4998ZM30.0625 22.4798C29.1602 22.4798 28.3877 22.7957 27.7451 23.4274C27.1025 24.0591 26.7812 24.8186 26.7812 25.7057C26.7812 26.5928 27.1025 27.3522 27.7451 27.9839C28.3877 28.6156 29.1602 28.9315 30.0625 28.9315C30.9648 28.9315 31.7373 28.6156 32.3799 27.9839C33.0225 27.3522 33.3438 26.5928 33.3438 25.7057C33.3438 24.8186 33.0225 24.0591 32.3799 23.4274C31.7373 22.7957 30.9648 22.4798 30.0625 22.4798ZM18.25 22.4798C17.6484 22.4798 17.0947 22.6277 16.5889 22.9234C16.083 23.2191 15.6865 23.6089 15.3994 24.0927C15.1123 24.5766 14.9688 25.1143 14.9688 25.7057C14.9688 26.5928 15.29 27.3522 15.9326 27.9839C16.5752 28.6156 17.3477 28.9315 18.25 28.9315C19.1523 28.9315 19.9248 28.6156 20.5674 27.9839C21.21 27.3522 21.5312 26.5928 21.5312 25.7057C21.5312 25.4906 21.5107 25.2755 21.4697 25.0605C21.4287 24.8454 21.3672 24.6438 21.2852 24.4557C21.2031 24.2675 21.1006 24.086 20.9775 23.9113C20.8545 23.7366 20.7178 23.5753 20.5674 23.4274C20.417 23.2796 20.2529 23.1452 20.0752 23.0242C19.8975 22.9032 19.7129 22.8024 19.5215 22.7218C19.3301 22.6411 19.125 22.5806 18.9062 22.5403C18.6875 22.5 18.4688 22.4798 18.25 22.4798Z" fill="#3F4E65"/>

	</symbol>
	
	<symbol id="cart-white" viewBox="0 0 41 29" fill="none">
		<path d="M40.6514 5.78617C40.3916 5.42327 40.043 5.24182 39.6055 5.24182H11.7559L11 3.27403C10.8086 2.62887 10.5488 2.07779 10.2207 1.6208C9.89258 1.16381 9.54395 0.841232 9.1748 0.65306C8.80566 0.464888 8.48438 0.3372 8.21094 0.269996C7.9375 0.202792 7.66406 0.169189 7.39062 0.169189H1.77148C1.41602 0.169189 1.11523 0.290157 0.869141 0.532093C0.623047 0.774028 0.5 1.08317 0.5 1.45951C0.5 1.67457 0.554688 1.8829 0.664062 2.08451C0.773438 2.28612 0.930664 2.44069 1.13574 2.54822C1.34082 2.65575 1.55273 2.70951 1.77148 2.70951H7.39062C7.5 2.70951 7.60254 2.72295 7.69824 2.74983C7.79395 2.77672 7.92383 2.89096 8.08789 3.09258C8.25195 3.29419 8.38867 3.59661 8.49805 3.99983L14.3809 20.1531C14.4355 20.3144 14.5244 20.4689 14.6475 20.6168C14.7705 20.7646 14.9141 20.8789 15.0781 20.9595C15.2422 21.0402 15.4199 21.0805 15.6113 21.0805H33.3301C33.6035 21.0805 33.8564 20.9998 34.0889 20.8385C34.3213 20.6773 34.4785 20.4756 34.5605 20.2337L40.8359 6.97569C40.9727 6.54558 40.9111 6.14908 40.6514 5.78617ZM32.4277 18.4998H16.6367L12.4531 7.82246H37.7188L32.4277 18.4998ZM30.0625 22.4798C29.1602 22.4798 28.3877 22.7957 27.7451 23.4274C27.1025 24.0591 26.7812 24.8186 26.7812 25.7057C26.7812 26.5928 27.1025 27.3522 27.7451 27.9839C28.3877 28.6156 29.1602 28.9315 30.0625 28.9315C30.9648 28.9315 31.7373 28.6156 32.3799 27.9839C33.0225 27.3522 33.3438 26.5928 33.3438 25.7057C33.3438 24.8186 33.0225 24.0591 32.3799 23.4274C31.7373 22.7957 30.9648 22.4798 30.0625 22.4798ZM18.25 22.4798C17.6484 22.4798 17.0947 22.6277 16.5889 22.9234C16.083 23.2191 15.6865 23.6089 15.3994 24.0927C15.1123 24.5766 14.9688 25.1143 14.9688 25.7057C14.9688 26.5928 15.29 27.3522 15.9326 27.9839C16.5752 28.6156 17.3477 28.9315 18.25 28.9315C19.1523 28.9315 19.9248 28.6156 20.5674 27.9839C21.21 27.3522 21.5312 26.5928 21.5312 25.7057C21.5312 25.4906 21.5107 25.2755 21.4697 25.0605C21.4287 24.8454 21.3672 24.6438 21.2852 24.4557C21.2031 24.2675 21.1006 24.086 20.9775 23.9113C20.8545 23.7366 20.7178 23.5753 20.5674 23.4274C20.417 23.2796 20.2529 23.1452 20.0752 23.0242C19.8975 22.9032 19.7129 22.8024 19.5215 22.7218C19.3301 22.6411 19.125 22.5806 18.9062 22.5403C18.6875 22.5 18.4688 22.4798 18.25 22.4798Z" fill="white"/>

	</symbol>

	<symbol id="catalog" viewBox="0 0 15 15" fill="none">
		<path d="M0.5 2C0.5 1.17157 1.17157 0.5 2 0.5H6C6.27614 0.5 6.5 0.723858 6.5 1V6C6.5 6.27614 6.27614 6.5 6 6.5H1C0.723858 6.5 0.5 6.27614 0.5 6V2Z" />
		<path d="M8.5 1C8.5 0.723858 8.72386 0.5 9 0.5H13C13.8284 0.5 14.5 1.17157 14.5 2V6C14.5 6.27614 14.2761 6.5 14 6.5H9C8.72386 6.5 8.5 6.27614 8.5 6V1Z" />
		<path d="M8.5 9C8.5 8.72386 8.72386 8.5 9 8.5H14C14.2761 8.5 14.5 8.72386 14.5 9V13C14.5 13.8284 13.8284 14.5 13 14.5H9C8.72386 14.5 8.5 14.2761 8.5 14V9Z" />
		<path d="M0.5 9C0.5 8.72386 0.723858 8.5 1 8.5H6C6.27614 8.5 6.5 8.72386 6.5 9V14C6.5 14.2761 6.27614 14.5 6 14.5H2C1.17157 14.5 0.5 13.8284 0.5 13V9Z" />

	</symbol>

	<symbol id="search" viewBox="0 0 14 14" fill="none">
		<path d="M13.125 13.125L10.3212 10.3162L13.125 13.125ZM11.875 6.5625C11.875 7.97146 11.3153 9.32272 10.319 10.319C9.32272 11.3153 7.97146 11.875 6.5625 11.875C5.15354 11.875 3.80228 11.3153 2.806 10.319C1.80971 9.32272 1.25 7.97146 1.25 6.5625C1.25 5.15354 1.80971 3.80228 2.806 2.806C3.80228 1.80971 5.15354 1.25 6.5625 1.25C7.97146 1.25 9.32272 1.80971 10.319 2.806C11.3153 3.80228 11.875 5.15354 11.875 6.5625V6.5625Z"  stroke-linecap="round"/>
	</symbol>

	<symbol id="location" viewBox="0 0 20 20" fill="none">
		<path d="M10 10.8335C11.3807 10.8335 12.5 9.71421 12.5 8.3335C12.5 6.95278 11.3807 5.8335 10 5.8335C8.61929 5.8335 7.5 6.95278 7.5 8.3335C7.5 9.71421 8.61929 10.8335 10 10.8335Z" stroke="#3F4E65" stroke-width="1.3" stroke-linecap="round" stroke-linejoin="round"/>
		<path d="M10.0002 1.66675C8.23205 1.66675 6.53636 2.36913 5.28612 3.61937C4.03588 4.86961 3.3335 6.5653 3.3335 8.33342C3.3335 9.91008 3.6685 10.9417 4.5835 12.0834L10.0002 18.3334L15.4168 12.0834C16.3318 10.9417 16.6668 9.91008 16.6668 8.33342C16.6668 6.5653 15.9644 4.86961 14.7142 3.61937C13.464 2.36913 11.7683 1.66675 10.0002 1.66675V1.66675Z" stroke="#3F4E65" stroke-width="1.3" stroke-linecap="round" stroke-linejoin="round"/>
	</symbol>

	<symbol id="mail" viewBox="0 0 20 20" fill="none">
		<path d="M4.37484 3.33325H15.6248C16.3166 3.33321 16.9822 3.59788 17.485 4.07298C17.9879 4.54808 18.2898 5.19758 18.329 5.88825L18.3332 6.04158V13.9583C18.3332 14.65 18.0685 15.3156 17.5934 15.8184C17.1183 16.3213 16.4688 16.6233 15.7782 16.6624L15.6248 16.6666H4.37484C3.68306 16.6666 3.01748 16.402 2.51464 15.9269C2.01181 15.4518 1.70984 14.8023 1.67067 14.1116L1.6665 13.9583V6.04158C1.66646 5.3498 1.93113 4.68423 2.40623 4.18139C2.88133 3.67856 3.53083 3.37658 4.2215 3.33742L4.37484 3.33325H15.6248H4.37484ZM17.0832 7.81075L10.2915 11.3858C10.2148 11.4263 10.1305 11.4504 10.044 11.4565C9.95751 11.4627 9.87066 11.4508 9.789 11.4216L9.709 11.3866L2.9165 7.81158V13.9583C2.91652 14.3242 3.05415 14.6768 3.30207 14.9461C3.54999 15.2153 3.89009 15.3815 4.25484 15.4116L4.37484 15.4166H15.6248C15.991 15.4166 16.3437 15.2788 16.6129 15.0307C16.8822 14.7826 17.0483 14.4423 17.0782 14.0774L17.0832 13.9583V7.81075ZM15.6248 4.58325H4.37484C4.00885 4.58327 3.65624 4.72089 3.38701 4.96882C3.11778 5.21674 2.95162 5.55683 2.9215 5.92159L2.9165 6.04158V6.39908L9.99984 10.1266L17.0832 6.39825V6.04158C17.0831 5.67546 16.9454 5.32274 16.6973 5.0535C16.4492 4.78425 16.1089 4.61817 15.744 4.58825L15.6248 4.58325Z" fill="#3F4E65"/>
	</symbol>

	<symbol id="download" viewBox="0 0 12 13" >
		<path d="M10.9585 4.375H8.12516V0.125H3.87516V4.375H1.04183L6.00016 10.0417L10.9585 4.375ZM0.333496 11.4583H11.6668V12.875H0.333496V11.4583Z" />
	</symbol>

	<symbol id="burger" viewBox="0 0 12 12" fill="none">
		<path d="M1.79993 6.5999H10.1999V5.3999H1.79993V6.5999ZM1.79993 9.5999H10.1999V8.3999H1.79993V9.5999ZM1.79993 2.3999V3.5999H10.1999V2.3999H1.79993Z" fill="white"/>
	</symbol>

	<symbol id="box" viewBox="0 0 20 16" fill="none">
		<g opacity="0.23" clip-path="url(#clip0_57_1804)">
			<path d="M13.3035 8.00018C12.7753 8.00018 12.2785 7.71893 12.0097 7.26893L10.0003 3.93768L7.9941 7.26893C7.72222 7.72205 7.22535 8.0033 6.69722 8.0033C6.5566 8.0033 6.41597 7.98455 6.2816 7.94393L2.00035 6.71893V12.2814C2.00035 12.7408 2.31285 13.1408 2.7566 13.2502L9.51285 14.9408C9.8316 15.0189 10.166 15.0189 10.4816 14.9408L17.2441 13.2502C17.6878 13.1377 18.0003 12.7377 18.0003 12.2814V6.71893L13.7191 7.9408C13.5847 7.98143 13.4441 8.00018 13.3035 8.00018ZM19.9472 4.49393L18.3378 1.28143C18.241 1.08768 18.0316 0.975179 17.816 1.0033L10.0003 2.00018L12.866 6.7533C12.9847 6.95018 13.2222 7.04393 13.4441 6.98143L19.6285 5.2158C19.9378 5.12518 20.0878 4.78143 19.9472 4.49393ZM1.66285 1.28143L0.0534711 4.49393C-0.0902789 4.78143 0.0628461 5.12518 0.369096 5.21268L6.55347 6.9783C6.77535 7.0408 7.01285 6.94705 7.1316 6.75018L10.0003 2.00018L2.1816 1.0033C1.96597 0.978304 1.75972 1.08768 1.66285 1.28143Z" fill="#3F4E65"/>
		</g>
		<defs>
			<clipPath id="clip0_57_1804">
				<rect width="20" height="16" fill="white"/>
			</clipPath>
		</defs>
	</symbol>

	<symbol id="bottle" viewBox="0 0 9 15" fill="none">
		<g opacity="0.23" clip-path="url(#clip0_142_3177)">
			<path d="M8.1 14.0625C8.05312 14.3164 7.95234 14.5361 7.79766 14.7217C7.64297 14.9072 7.44375 15 7.2 15H1.8C1.55625 15 1.35938 14.9097 1.20938 14.729C1.05937 14.5483 0.95625 14.3262 0.9 14.0625L0 8.4375V6.5625C0 6.2793 0.0914062 6.04492 0.274219 5.85938C0.457031 5.67383 0.726562 5.49072 1.08281 5.31006C1.43906 5.12939 1.65937 5.00977 1.74375 4.95117C2.11875 4.67773 2.45625 4.35547 2.75625 3.98438C3.05625 3.61328 3.27656 3.22266 3.41719 2.8125H3.15C3.02812 2.8125 2.92266 2.76611 2.83359 2.67334C2.74453 2.58057 2.7 2.4707 2.7 2.34375V0.46875C2.7 0.341797 2.74453 0.231934 2.83359 0.13916C2.92266 0.0463867 3.02812 0 3.15 0H5.85C5.97187 0 6.07734 0.0463867 6.16641 0.13916C6.25547 0.231934 6.3 0.341797 6.3 0.46875V2.34375C6.3 2.4707 6.25547 2.58057 6.16641 2.67334C6.07734 2.76611 5.97187 2.8125 5.85 2.8125H5.58281C5.86406 3.60352 6.38437 4.28711 7.14375 4.86328C7.24687 4.95117 7.48125 5.08789 7.84687 5.27344C8.2125 5.45898 8.49609 5.64941 8.69766 5.84473C8.89922 6.04004 9 6.2793 9 6.5625V8.4375L8.1 14.0625Z" fill="#3F4E65"/>
		</g>
		<defs>
			<clipPath id="clip0_142_3177">
				<rect width="9" height="15" fill="white"/>
			</clipPath>
		</defs>

	</symbol>
	<symbol id="arrow-right" viewBox="0 0 8 15" >
		<path d="M0 12.8571L5 7.5L0 2.14286L1 0L8 7.5L1 15L0 12.8571Z" />
	</symbol>

	<symbol id="whatsapp" viewBox="0 0 23 23" fill="none">
		<path d="M19.6784 3.35675C17.5476 1.18112 14.6022 0 11.594 0C5.20169 0 0.06271 5.15944 0.12533 11.4378C0.12533 13.427 0.68936 15.3541 1.62947 17.0946L0 23L6.079 21.4459C7.77109 22.3784 9.65113 22.8136 11.5314 22.8136C17.861 22.8136 23 17.654 23 11.3758C23 8.32976 21.8092 5.47027 19.6785 3.35675H19.6784ZM11.594 20.8866C9.90189 20.8866 8.20979 20.4515 6.76836 19.5812L6.39237 19.3947L2.75753 20.3271L3.69755 16.7839L3.44689 16.4109C0.68936 11.9974 2.00546 6.15404 6.5177 3.41886C11.0299 0.683773 16.8583 1.98921 19.6158 6.46487C22.3733 10.9405 21.0572 16.7216 16.545 19.4568C15.1035 20.3892 13.3488 20.8865 11.594 20.8865V20.8866ZM17.1089 13.9866L16.4196 13.6758C16.4196 13.6758 15.4169 13.2407 14.7902 12.9298C14.7275 12.9298 14.6649 12.8676 14.6022 12.8676C14.4141 12.8676 14.2888 12.9298 14.1635 12.992C14.1635 12.992 14.1008 13.0541 13.2234 14.0488C13.1607 14.1731 13.0354 14.2353 12.9101 14.2353H12.8474C12.7847 14.2353 12.6594 14.1731 12.5967 14.111L12.2833 13.9866C11.594 13.6758 10.9673 13.3028 10.4659 12.8055C10.3406 12.6812 10.1525 12.5569 10.0272 12.4326C9.58851 11.9974 9.14981 11.5001 8.83653 10.9406L8.77382 10.8163C8.7112 10.7541 8.7112 10.692 8.64849 10.5677C8.64849 10.4434 8.64849 10.3191 8.7112 10.2569C8.7112 10.2569 8.96186 9.94603 9.14981 9.7596C9.27523 9.6352 9.33785 9.44877 9.46318 9.32446C9.58851 9.13794 9.65122 8.88931 9.58851 8.7028C9.52589 8.39197 8.77382 6.71359 8.58587 6.34065C8.46045 6.15413 8.33521 6.09202 8.14717 6.02982H7.45781C7.33239 6.02982 7.20715 6.09202 7.08173 6.09202L7.01902 6.15413C6.89369 6.21633 6.76836 6.34065 6.64303 6.40276C6.5177 6.52716 6.45499 6.65139 6.32966 6.77579C5.89096 7.33525 5.6403 8.01902 5.6403 8.7028C5.6403 9.20005 5.76563 9.6974 5.95367 10.1325L6.01638 10.3191C6.58041 11.5001 7.33239 12.5569 8.33521 13.4893L8.58587 13.7379C8.77382 13.9244 8.96186 14.0488 9.08719 14.2352C10.4033 15.3542 11.9073 16.1623 13.5994 16.5974C13.7875 16.6595 14.0381 16.6595 14.2262 16.7217H14.8528C15.1662 16.7217 15.5422 16.5974 15.7929 16.4731C15.9809 16.3488 16.1062 16.3488 16.2315 16.2245L16.357 16.1001C16.4823 15.9758 16.6076 15.9136 16.733 15.7893C16.8583 15.665 16.9836 15.5407 17.0463 15.4163C17.1717 15.1677 17.2343 14.8568 17.297 14.5461V14.111C17.297 14.111 17.2343 14.0488 17.1089 13.9866Z" fill="white"/>
	</symbol>

	<symbol id="telegram" viewBox="0 0 23 20" fill="none">
		<path d="M22.9884 1.21692L19.5054 18.7774C19.5054 18.7774 19.0183 19.9953 17.6788 19.4107L9.6414 13.2487L6.71884 11.8362L1.79905 10.1799C1.79905 10.1799 1.04404 9.91209 0.970912 9.32755C0.897787 8.74301 1.82343 8.42644 1.82343 8.42644L21.3807 0.754405C21.3807 0.754405 22.9882 0.0481401 22.9882 1.21723" fill="white"/>
	</symbol>
	<symbol id="telegram2" viewBox="0 0 14 15" fill="none" >
		<path d="M3.02371 14.5799C3.02371 14.5799 2.7891 14.558 2.4966 13.6324C2.20456 12.7069 0.71875 7.83583 0.71875 7.83583L12.5312 0.334422C12.5312 0.334422 13.2132 -0.0796484 13.1888 0.334422C13.1888 0.334422 13.3106 0.407546 12.9451 0.748491C12.5799 1.08959 3.66584 9.10241 3.66584 9.10241" fill="#D2E5F1"/>

	</symbol>
	<symbol id="telegram3" viewBox="0 0 39 39" fill="none">
		<g clip-path="url(#clip0_3523_307)">
			<path d="M19.5 0C8.73036 0 0 8.73036 0 19.5C0 30.2696 8.73036 39 19.5 39C30.2696 39 39 30.2696 39 19.5C39 8.73036 30.2696 0 19.5 0Z" fill="#40B3E0"/>
			<path d="M28.9884 11.2169L25.5054 28.7774C25.5054 28.7774 25.0183 29.9953 23.6788 29.4107L15.6414 23.2487L12.7188 21.8362L7.79905 20.1799C7.79905 20.1799 7.04404 19.9121 6.97091 19.3275C6.89779 18.743 7.82343 18.4264 7.82343 18.4264L27.3807 10.7544C27.3807 10.7544 28.9882 10.0481 28.9882 11.2172" fill="white"/>
			<path d="M15.0237 28.5799C15.0237 28.5799 14.7891 28.558 14.4966 27.6324C14.2046 26.7069 12.7188 21.8358 12.7188 21.8358L24.5312 14.3344C24.5312 14.3344 25.2132 13.9204 25.1888 14.3344C25.1888 14.3344 25.3106 14.4075 24.9451 14.7485C24.5799 15.0896 15.6658 23.1024 15.6658 23.1024" fill="#D2E5F1"/>
			<path d="M18.7228 25.6112L15.5438 28.5097C15.5438 28.5097 15.2952 28.6983 15.0234 28.5801L15.6322 23.1963" fill="#B5CFE4"/>
		</g>
		<defs>
			<clipPath id="clip0_3523_307">
				<rect width="39" height="39" fill="white"/>
			</clipPath>
		</defs>

	</symbol>

	<symbol id="share" viewBox="0 0 25 25" fill="none">
		<path d="M6.00004 15.5C6.87469 15.4974 7.71626 15.1653 8.35704 14.57L14.617 18.147C14.4073 18.9666 14.4998 19.8343 14.8775 20.5913C15.2552 21.3483 15.893 21.9439 16.674 22.2692C17.455 22.5944 18.327 22.6274 19.1304 22.3623C19.9338 22.0971 20.6148 21.5515 21.0488 20.8252C21.4827 20.099 21.6406 19.2408 21.4935 18.4076C21.3464 17.5745 20.9042 16.8222 20.2478 16.2885C19.5914 15.7548 18.7647 15.4753 17.919 15.5013C17.0734 15.5273 16.2655 15.857 15.643 16.43L9.38304 12.853C9.44904 12.603 9.48504 12.344 9.49104 12.085L15.641 8.56996C16.2332 9.10874 16.9927 9.42747 17.792 9.47268C18.5913 9.51789 19.3818 9.28684 20.031 8.81828C20.6802 8.34972 21.1484 7.67217 21.3572 6.89929C21.5661 6.1264 21.5027 5.30522 21.1779 4.5735C20.853 3.84178 20.2864 3.24404 19.5731 2.88056C18.8597 2.51708 18.0431 2.40998 17.2602 2.57723C16.4772 2.74447 15.7756 3.17588 15.2731 3.79909C14.7705 4.42229 14.4976 5.19937 14.5 5.99996C14.504 6.28796 14.543 6.57497 14.617 6.85296L8.93304 10.1C8.60341 9.59003 8.1468 9.17461 7.60805 8.89454C7.06931 8.61446 6.46697 8.47936 5.86021 8.50251C5.25346 8.52566 4.66316 8.70627 4.14732 9.02658C3.63148 9.34689 3.20785 9.79589 2.91804 10.3295C2.62823 10.863 2.48222 11.4628 2.49435 12.0699C2.50648 12.677 2.67634 13.2704 2.98723 13.792C3.29812 14.3136 3.73936 14.7453 4.26758 15.0447C4.7958 15.3442 5.39284 15.5011 6.00004 15.5Z" fill="#FFC85E"/>
	</symbol>
	<symbol id="double-check" viewBox="0 0 25 25" fill="none">
		<path d="M2.5 12.5L7.75 17.5L10.375 14.5" stroke="white" stroke-width="2" stroke-linecap="round" stroke-linejoin="round"/>
		<path d="M8.5 12.5L13.75 17.5L22.5 7.5" stroke="white" stroke-width="2" stroke-linecap="round" stroke-linejoin="round"/>
		<path d="M16.5 7.5L13 11.5" stroke="white" stroke-width="2" stroke-linecap="round" stroke-linejoin="round"/>
	</symbol>

	<symbol id="close" viewBox="0 0 14 14" >
		<path d="M8.40994 7.00019L12.7099 2.71019C12.8982 2.52188 13.004 2.26649 13.004 2.00019C13.004 1.73388 12.8982 1.47849 12.7099 1.29019C12.5216 1.10188 12.2662 0.996094 11.9999 0.996094C11.7336 0.996094 11.4782 1.10188 11.2899 1.29019L6.99994 5.59019L2.70994 1.29019C2.52164 1.10188 2.26624 0.996094 1.99994 0.996094C1.73364 0.996094 1.47824 1.10188 1.28994 1.29019C1.10164 1.47849 0.995847 1.73388 0.995847 2.00019C0.995847 2.26649 1.10164 2.52188 1.28994 2.71019L5.58994 7.00019L1.28994 11.2902C1.19621 11.3831 1.12182 11.4937 1.07105 11.6156C1.02028 11.7375 0.994141 11.8682 0.994141 12.0002C0.994141 12.1322 1.02028 12.2629 1.07105 12.3848C1.12182 12.5066 1.19621 12.6172 1.28994 12.7102C1.3829 12.8039 1.4935 12.8783 1.61536 12.9291C1.73722 12.9798 1.86793 13.006 1.99994 13.006C2.13195 13.006 2.26266 12.9798 2.38452 12.9291C2.50638 12.8783 2.61698 12.8039 2.70994 12.7102L6.99994 8.41019L11.2899 12.7102C11.3829 12.8039 11.4935 12.8783 11.6154 12.9291C11.7372 12.9798 11.8679 13.006 11.9999 13.006C12.132 13.006 12.2627 12.9798 12.3845 12.9291C12.5064 12.8783 12.617 12.8039 12.7099 12.7102C12.8037 12.6172 12.8781 12.5066 12.9288 12.3848C12.9796 12.2629 13.0057 12.1322 13.0057 12.0002C13.0057 11.8682 12.9796 11.7375 12.9288 11.6156C12.8781 11.4937 12.8037 11.3831 12.7099 11.2902L8.40994 7.00019Z" />
	</symbol>

	<symbol id="triangle" viewBox="0 0 7 6" fill="none">
		<path d="M3.5 6L0.468911 0.750001L6.53109 0.75L3.5 6Z" fill="#3F4E65"/>
	</symbol>

	<symbol id="phone" viewBox="0 0 18 18" fill="none">
		<path d="M2.20194 3.15157L2.22602 3.13652L5.27031 1.63672L8.55612 6.01779L7.0444 8.03354C7.08963 8.79373 7.41201 9.51095 7.9505 10.0494C8.48899 10.5879 9.20622 10.9103 9.96641 10.9555L11.9821 9.4438L16.3632 12.7295L14.8758 15.7484L14.8633 15.7739L14.8482 15.7979C14.7689 15.9258 14.6581 16.0312 14.5264 16.1042C14.3948 16.1772 14.2467 16.2152 14.0961 16.2148H13.3106C11.7971 16.2148 10.2983 15.9166 8.89999 15.3374C7.50165 14.7582 6.23109 13.9092 5.16085 12.839C4.09061 11.7688 3.24165 10.4982 2.66244 9.09985C2.08324 7.70151 1.78512 6.20278 1.78513 4.68923V3.90366C1.78465 3.75315 1.8227 3.60502 1.89566 3.47337C1.96862 3.34172 2.07406 3.23094 2.20194 3.15157ZM2.91013 4.68923C2.91013 10.4241 7.57578 15.0898 13.3106 15.0898H13.9462L14.9414 13.0696L11.9819 10.85L10.3342 12.0857H10.1468C9.02453 12.0844 7.94863 11.6381 7.1551 10.8445C6.36156 10.051 5.91521 8.9751 5.91395 7.85287V7.66538L7.14966 6.01775L4.93031 3.05847L2.91013 4.05378V4.68923Z" fill="#3F4E65"/>
	</symbol>

	<symbol id="orange-phone" viewBox="0 0 30 30" fill="none">
		<rect width="30" height="30" rx="15" fill="#FFC85E"/>
		<g clip-path="url(#clip0_144_5050)">
			<path d="M16.3531 16.7125L17.0531 16.0125C17.1474 15.9194 17.2667 15.8557 17.3965 15.829C17.5263 15.8024 17.6611 15.814 17.7844 15.8625L18.6375 16.2031C18.7621 16.2537 18.869 16.3401 18.9446 16.4513C19.0203 16.5625 19.0613 16.6936 19.0625 16.8281V18.3906C19.0618 18.4821 19.0426 18.5725 19.006 18.6564C18.9694 18.7403 18.9162 18.8159 18.8496 18.8786C18.7831 18.9414 18.7045 18.9901 18.6186 19.0217C18.5328 19.0533 18.4414 19.0672 18.35 19.0625C12.3719 18.6906 11.1656 13.6281 10.9375 11.6906C10.9269 11.5955 10.9366 11.4992 10.9659 11.408C10.9952 11.3169 11.0435 11.233 11.1075 11.1619C11.1716 11.0907 11.25 11.034 11.3376 10.9953C11.4251 10.9566 11.5199 10.9369 11.6156 10.9375H13.125C13.2597 10.9379 13.3912 10.9786 13.5026 11.0543C13.614 11.1301 13.7001 11.2374 13.75 11.3625L14.0906 12.2156C14.1407 12.3385 14.1535 12.4733 14.1274 12.6034C14.1012 12.7334 14.0374 12.8529 13.9438 12.9469L13.2438 13.6469C13.2438 13.6469 13.6469 16.375 16.3531 16.7125Z" fill="white"/>
		</g>
		<defs>
			<clipPath id="clip0_144_5050">
				<rect width="10" height="10" fill="white" transform="translate(10 10)"/>
			</clipPath>
		</defs>

	</symbol>

	
	
</svg>